{"extensionsUsed" : ["KHR_materials_transmission"], "accessors" : [{"bufferView" : 0, "byteOffset" : 0, "componentType" : 5123, "count" : 5316, "type" : "SCALAR", "max" : [4464], "min" : [0]}, {"bufferView" : 1, "byteOffset" : 0, "componentType" : 5126, "count" : 4465, "type" : "VEC3", "max" : [3.4621620178222656, 0.011162187904119492, 2], "min" : [-3.441561222076416, -7.5, -0.5], "name" : "POSITION"}, {"bufferView" : 1, "byteOffset" : 12, "componentType" : 5126, "count" : 4465, "type" : "VEC3", "max" : [1.0000044107437134, 1.0000044107437134, 1.0000044107437134], "min" : [-1.0000044107437134, -1.0000044107437134, -1.0000044107437134], "name" : "NORMAL"}, {"bufferView" : 0, "byteOffset" : 10632, "componentType" : 5123, "count" : 2898, "type" : "SCALAR", "max" : [2407], "min" : [0]}, {"bufferView" : 2, "byteOffset" : 0, "componentType" : 5126, "count" : 2408, "type" : "VEC3", "max" : [2.265500068664551, -4.5345001220703125, 4.6969685554504395], "min" : [1.1346043348312378, -5.665500164031982, 2], "name" : "POSITION"}, {"bufferView" : 2, "byteOffset" : 12, "componentType" : 5126, "count" : 2408, "type" : "VEC3", "max" : [1.0000044107437134, 1.0000044107437134, 1.0000044107437134], "min" : [-0.9998200535774231, -1.0000044107437134, -1.0000044107437134], "name" : "NORMAL"}, {"bufferView" : 0, "byteOffset" : 16428, "componentType" : 5123, "count" : 2844, "type" : "SCALAR", "max" : [2359], "min" : [0]}, {"bufferView" : 3, "byteOffset" : 0, "componentType" : 5126, "count" : 2360, "type" : "VEC3", "max" : [-1.1343145370483398, -4.5343146324157715, 4.696987628936768], "min" : [-2.2655811309814453, -5.665685653686523, 1.899999976158142], "name" : "POSITION"}, {"bufferView" : 3, "byteOffset" : 12, "componentType" : 5126, "count" : 2360, "type" : "VEC3", "max" : [1.0000044107437134, 1.0000044107437134, 1.0000044107437134], "min" : [-0.9998201727867126, -1.0000044107437134, -1.0000044107437134], "name" : "NORMAL"}, {"bufferView" : 0, "byteOffset" : 22116, "componentType" : 5123, "count" : 2310, "type" : "SCALAR", "max" : [1938], "min" : [0]}, {"bufferView" : 4, "byteOffset" : 0, "componentType" : 5126, "count" : 1939, "type" : "VEC3", "max" : [0.6417470574378967, -1.1282720565795898, 6.49440860748291], "min" : [-0.6813294887542725, -2.4507265090942383, 1.899999976158142], "name" : "POSITION"}, {"bufferView" : 4, "byteOffset" : 12, "componentType" : 5126, "count" : 1939, "type" : "VEC3", "max" : [1.0000044107437134, 1.0000044107437134, 1.0000044107437134], "min" : [-0.9991421103477478, -1.0000044107437134, -1.0000044107437134], "name" : "NORMAL"}, {"bufferView" : 0, "byteOffset" : 26736, "componentType" : 5123, "count" : 108, "type" : "SCALAR", "max" : [90], "min" : [0]}, {"bufferView" : 5, "byteOffset" : 0, "componentType" : 5126, "count" : 91, "type" : "VEC3", "max" : [0.3603003919124603, -7, 1.1487669944763184], "min" : [-0.3396995961666107, -21.5, 0.45940151810646057], "name" : "POSITION"}, {"bufferView" : 5, "byteOffset" : 12, "componentType" : 5126, "count" : 91, "type" : "VEC3", "max" : [1.0000044107437134, 4.211209254859721E-17, 0.9848119616508484], "min" : [-1.0000044107437134, -4.211209254859721E-17, -0.9848119616508484], "name" : "NORMAL"}, {"bufferView" : 0, "byteOffset" : 26952, "componentType" : 5123, "count" : 96, "type" : "SCALAR", "max" : [80], "min" : [0]}, {"bufferView" : 6, "byteOffset" : 0, "componentType" : 5126, "count" : 81, "type" : "VEC3", "max" : [0.3603003919124603, -7, 1.1487669944763184], "min" : [-0.3396995961666107, -21.5, 0.45940151810646057], "name" : "POSITION"}, {"bufferView" : 6, "byteOffset" : 12, "componentType" : 5126, "count" : 81, "type" : "VEC3", "max" : [4.211209254859721E-17, 1.0000044107437134, 0], "min" : [-4.211209254859721E-17, -1.0000044107437134, 0], "name" : "NORMAL"}, {"bufferView" : 0, "byteOffset" : 27144, "componentType" : 5123, "count" : 180, "type" : "SCALAR", "max" : [163], "min" : [0]}, {"bufferView" : 7, "byteOffset" : 0, "componentType" : 5126, "count" : 164, "type" : "VEC3", "max" : [0.734643816947937, -3.7777915000915527, -0.5], "min" : [0.2762536406517029, -4.277791500091553, -0.5070000290870667], "name" : "POSITION"}, {"bufferView" : 7, "byteOffset" : 12, "componentType" : 5126, "count" : 164, "type" : "VEC3", "max" : [1.0000044107437134, 1.0000044107437134, 1.0000044107437134], "min" : [-1.0000044107437134, -1.0000044107437134, -1.0000044107437134], "name" : "NORMAL"}, {"bufferView" : 0, "byteOffset" : 27504, "componentType" : 5123, "count" : 2178, "type" : "SCALAR", "max" : [1832], "min" : [0]}, {"bufferView" : 8, "byteOffset" : 0, "componentType" : 5126, "count" : 1833, "type" : "VEC3", "max" : [0.23941868543624878, -3.7692649364471436, -0.5], "min" : [-0.15860319137573242, -4.286318302154541, -0.5070000290870667], "name" : "POSITION"}, {"bufferView" : 8, "byteOffset" : 12, "componentType" : 5126, "count" : 1833, "type" : "VEC3", "max" : [0.9980658888816833, 0.999535083770752, 1.0000044107437134], "min" : [-0.9981272220611572, -0.999889075756073, -1.0000044107437134], "name" : "NORMAL"}, {"bufferView" : 0, "byteOffset" : 31860, "componentType" : 5123, "count" : 132, "type" : "SCALAR", "max" : [124], "min" : [0]}, {"bufferView" : 9, "byteOffset" : 0, "componentType" : 5126, "count" : 125, "type" : "VEC3", "max" : [-0.24625658988952637, -3.7777915000915527, -0.5], "min" : [-0.6596262454986572, -4.277791500091553, -0.5070000290870667], "name" : "POSITION"}, {"bufferView" : 9, "byteOffset" : 12, "componentType" : 5126, "count" : 125, "type" : "VEC3", "max" : [1.0000044107437134, 1.0000044107437134, 1.0000044107437134], "min" : [-1.0000044107437134, -1.0000044107437134, -1.0000044107437134], "name" : "NORMAL"}, {"bufferView" : 0, "byteOffset" : 32124, "componentType" : 5123, "count" : 228, "type" : "SCALAR", "max" : [209], "min" : [0]}, {"bufferView" : 10, "byteOffset" : 0, "componentType" : 5126, "count" : 210, "type" : "VEC3", "max" : [-0.6599674224853516, -3.7777915000915527, -0.5], "min" : [-1.1279072761535645, -4.277791500091553, -0.5070000290870667], "name" : "POSITION"}, {"bufferView" : 10, "byteOffset" : 12, "componentType" : 5126, "count" : 210, "type" : "VEC3", "max" : [0.9558007717132568, 1.0000044107437134, 1.0000044107437134], "min" : [-0.976669430732727, -1.0000044107437134, -1.0000044107437134], "name" : "NORMAL"}, {"bufferView" : 0, "byteOffset" : 32580, "componentType" : 5123, "count" : 2178, "type" : "SCALAR", "max" : [1832], "min" : [0]}, {"bufferView" : 11, "byteOffset" : 0, "componentType" : 5126, "count" : 1833, "type" : "VEC3", "max" : [1.1712058782577515, -3.7692649364471436, -0.5], "min" : [0.773184061050415, -4.286318302154541, -0.5070000290870667], "name" : "POSITION"}, {"bufferView" : 11, "byteOffset" : 12, "componentType" : 5126, "count" : 1833, "type" : "VEC3", "max" : [0.9980660080909729, 0.999535083770752, 1.0000044107437134], "min" : [-0.9981271624565125, -0.999889075756073, -1.0000044107437134], "name" : "NORMAL"}, {"bufferView" : 0, "byteOffset" : 36936, "componentType" : 5123, "count" : 3012, "type" : "SCALAR", "max" : [3011], "min" : [0]}, {"bufferView" : 12, "byteOffset" : 0, "componentType" : 5126, "count" : 3012, "type" : "VEC3", "max" : [4.648033618927002, -2.3250317573547363, 4.410781383514404], "min" : [-5.206413269042969, -9.814533233642578, -2.7389278411865234], "name" : "POSITION"}, {"bufferView" : 12, "byteOffset" : 12, "componentType" : 5126, "count" : 3012, "type" : "VEC3", "max" : [0.9997853636741638, 1.0000044107437134, 1.0000044107437134], "min" : [-1.0000044107437134, -1.0000044107437134, -1.0000044107437134], "name" : "NORMAL"}, {"bufferView" : 12, "byteOffset" : 24, "componentType" : 5126, "count" : 3012, "type" : "VEC2", "max" : [0.9998815655708313, -0.0001307702623307705], "min" : [0.00011845771223306656, -0.9998692274093628], "name" : "TEXCOORD_0"}], "asset" : {"generator" : "Aspose.3D 22.10", "version" : "2.0"}, "buffers" : [{"uri" : "data:application/octet-stream;base64,", "byteLength" : 582628}], "bufferViews" : [{"buffer" : 0, "byteOffset" : 0, "byteLength" : 42960, "target" : 34963}, {"buffer" : 0, "byteOffset" : 42964, "byteLength" : 127584, "byteStride" : 24, "target" : 34962}, {"buffer" : 0, "byteOffset" : 170552, "byteLength" : 69552, "byteStride" : 24, "target" : 34962}, {"buffer" : 0, "byteOffset" : 240108, "byteLength" : 68256, "byteStride" : 24, "target" : 34962}, {"buffer" : 0, "byteOffset" : 308368, "byteLength" : 55440, "byteStride" : 24, "target" : 34962}, {"buffer" : 0, "byteOffset" : 363812, "byteLength" : 2592, "byteStride" : 24, "target" : 34962}, {"buffer" : 0, "byteOffset" : 366408, "byteLength" : 2304, "byteStride" : 24, "target" : 34962}, {"buffer" : 0, "byteOffset" : 368716, "byteLength" : 4320, "byteStride" : 24, "target" : 34962}, {"buffer" : 0, "byteOffset" : 373040, "byteLength" : 52272, "byteStride" : 24, "target" : 34962}, {"buffer" : 0, "byteOffset" : 425316, "byteLength" : 3168, "byteStride" : 24, "target" : 34962}, {"buffer" : 0, "byteOffset" : 428488, "byteLength" : 5472, "byteStride" : 24, "target" : 34962}, {"buffer" : 0, "byteOffset" : 433964, "byteLength" : 52272, "byteStride" : 24, "target" : 34962}, {"buffer" : 0, "byteOffset" : 486240, "byteLength" : 96384, "byteStride" : 32, "target" : 34962}], "cameras" : [{"perspective" : {"aspectRatio" : 1, "yfov" : 0.6911154697478636, "zfar" : 57.90558624267578, "znear" : 40.35350036621094}, "type" : "perspective", "name" : ""}], "images" : [{"uri" : "data:image/png;base64,"}], "materials" : [{"name" : "Glass Heavy Frost Bright White #1", "extensions" : {"KHR_materials_transmission" : {"transmissionFactor" : 1}}, "pbrMetallicRoughness" : {"baseColorFactor" : [1, 1, 1, 1], "metallicFactor" : 0, "roughnessFactor" : 0.5}, "emissiveFactor" : [0, 0, 0], "alphaMode" : "OPAQUE", "doubleSided" : true}, {"name" : "Glass Heavy Frost Bright White #1", "extensions" : {"KHR_materials_transmission" : {"transmissionFactor" : 1}}, "pbrMetallicRoughness" : {"baseColorFactor" : [1, 1, 1, 1], "metallicFactor" : 0, "roughnessFactor" : 0.5}, "emissiveFactor" : [0, 0, 0], "alphaMode" : "OPAQUE", "doubleSided" : true}, {"name" : "Glass Heavy Frost Bright White #1", "extensions" : {"KHR_materials_transmission" : {"transmissionFactor" : 1}}, "pbrMetallicRoughness" : {"baseColorFactor" : [1, 1, 1, 1], "metallicFactor" : 0, "roughnessFactor" : 0.5}, "emissiveFactor" : [0, 0, 0], "alphaMode" : "OPAQUE", "doubleSided" : true}, {"name" : "Glass Heavy Frost Bright White #1", "extensions" : {"KHR_materials_transmission" : {"transmissionFactor" : 1}}, "pbrMetallicRoughness" : {"baseColorFactor" : [1, 1, 1, 1], "metallicFactor" : 0, "roughnessFactor" : 0.5}, "emissiveFactor" : [0, 0, 0], "alphaMode" : "OPAQUE", "doubleSided" : true}, {"name" : "Glass Heavy Frost Bright White #1", "extensions" : {"KHR_materials_transmission" : {"transmissionFactor" : 1}}, "pbrMetallicRoughness" : {"baseColorFactor" : [1, 1, 1, 1], "metallicFactor" : 0, "roughnessFactor" : 0.5}, "emissiveFactor" : [0, 0, 0], "alphaMode" : "OPAQUE", "doubleSided" : true}, {"name" : "Glass Heavy Frost Bright White #1", "extensions" : {"KHR_materials_transmission" : {"transmissionFactor" : 1}}, "pbrMetallicRoughness" : {"baseColorFactor" : [1, 1, 1, 1], "metallicFactor" : 0, "roughnessFactor" : 0.5}, "emissiveFactor" : [0, 0, 0], "alphaMode" : "OPAQUE", "doubleSided" : true}, {"name" : "Hard Rough Plastic Black #2", "pbrMetallicRoughness" : {"baseColorFactor" : [1, 1, 1, 1], "metallicFactor" : 0, "roughnessFactor" : 0.3872983455657959}, "emissiveFactor" : [0, 0, 0], "alphaMode" : "OPAQUE", "doubleSided" : true}, {"name" : "Hard Rough Plastic Black #2", "pbrMetallicRoughness" : {"baseColorFactor" : [1, 1, 1, 1], "metallicFactor" : 0, "roughnessFactor" : 0.3872983455657959}, "emissiveFactor" : [0, 0, 0], "alphaMode" : "OPAQUE", "doubleSided" : true}, {"name" : "Hard Rough Plastic Black #2", "pbrMetallicRoughness" : {"baseColorFactor" : [1, 1, 1, 1], "metallicFactor" : 0, "roughnessFactor" : 0.3872983455657959}, "emissiveFactor" : [0, 0, 0], "alphaMode" : "OPAQUE", "doubleSided" : true}, {"name" : "Hard Rough Plastic Black #2", "pbrMetallicRoughness" : {"baseColorFactor" : [1, 1, 1, 1], "metallicFactor" : 0, "roughnessFactor" : 0.3872983455657959}, "emissiveFactor" : [0, 0, 0], "alphaMode" : "OPAQUE", "doubleSided" : true}, {"name" : "Hard Rough Plastic Black #2", "pbrMetallicRoughness" : {"baseColorFactor" : [1, 1, 1, 1], "metallicFactor" : 0, "roughnessFactor" : 0.3872983455657959}, "emissiveFactor" : [0, 0, 0], "alphaMode" : "OPAQUE", "doubleSided" : true}, {"name" : "Rubber #2", "pbrMetallicRoughness" : {"baseColorFactor" : [0, 0, 0, 1], "metallicFactor" : 0, "roughnessFactor" : 0.4472135901451111}, "normalTexture" : {"index" : 0, "texCoord" : 0, "scale" : 1}, "emissiveFactor" : [0, 0, 0], "alphaMode" : "OPAQUE", "doubleSided" : true}], "meshes" : [{"primitives" : [{"attributes" : {"POSITION" : 1, "NORMAL" : 2}, "indices" : 0, "material" : 0, "mode" : 4}]}, {"primitives" : [{"attributes" : {"POSITION" : 4, "NORMAL" : 5}, "indices" : 3, "material" : 1, "mode" : 4}]}, {"primitives" : [{"attributes" : {"POSITION" : 7, "NORMAL" : 8}, "indices" : 6, "material" : 2, "mode" : 4}]}, {"primitives" : [{"attributes" : {"POSITION" : 10, "NORMAL" : 11}, "indices" : 9, "material" : 3, "mode" : 4}]}, {"primitives" : [{"attributes" : {"POSITION" : 13, "NORMAL" : 14}, "indices" : 12, "material" : 4, "mode" : 4}]}, {"primitives" : [{"attributes" : {"POSITION" : 16, "NORMAL" : 17}, "indices" : 15, "material" : 5, "mode" : 4}]}, {"primitives" : [{"attributes" : {"POSITION" : 19, "NORMAL" : 20}, "indices" : 18, "material" : 6, "mode" : 4}]}, {"primitives" : [{"attributes" : {"POSITION" : 22, "NORMAL" : 23}, "indices" : 21, "material" : 7, "mode" : 4}]}, {"primitives" : [{"attributes" : {"POSITION" : 25, "NORMAL" : 26}, "indices" : 24, "material" : 8, "mode" : 4}]}, {"primitives" : [{"attributes" : {"POSITION" : 28, "NORMAL" : 29}, "indices" : 27, "material" : 9, "mode" : 4}]}, {"primitives" : [{"attributes" : {"POSITION" : 31, "NORMAL" : 32}, "indices" : 30, "material" : 10, "mode" : 4}]}, {"primitives" : [{"attributes" : {"POSITION" : 34, "NORMAL" : 35, "TEXCOORD_0" : 36}, "indices" : 33, "material" : 11, "mode" : 4}]}], "nodes" : [{"camera" : 0, "matrix" : [-0.009114085981317244, -1.9827585173715078E-09, 0.004115025950304112, 0, 0.0005671048645127345, 0.009904582165104366, 0.0012560460605612945, 0, -0.004075761437416077, 0.0013781362771987916, -0.009027121067047119, 0, -0.20541467666625976, 0.03381445646286011, -0.3986208724975586, 1], "name" : "active"}, {"mesh" : 0, "name" : "Body1"}, {"children" : [1], "name" : "Body1"}, {"mesh" : 1, "name" : "Body2"}, {"children" : [3], "name" : "Body2"}, {"mesh" : 2, "name" : "Body3"}, {"children" : [5], "name" : "Body3"}, {"mesh" : 3, "name" : "Body4"}, {"children" : [7], "name" : "Body4"}, {"mesh" : 4, "name" : "Body7"}, {"mesh" : 5, "name" : "Body7"}, {"children" : [9, 10], "name" : "Body7"}, {"mesh" : 6, "name" : "Body10"}, {"children" : [12], "name" : "Body10"}, {"mesh" : 7, "name" : "Body11"}, {"children" : [14], "name" : "Body11"}, {"mesh" : 8, "name" : "Body12"}, {"children" : [16], "name" : "Body12"}, {"mesh" : 9, "name" : "Body13"}, {"children" : [18], "name" : "Body13"}, {"mesh" : 10, "name" : "Body14"}, {"children" : [20], "name" : "Body14"}, {"children" : [2, 4, 6, 8, 11, 13, 15, 17, 19, 21], "matrix" : [-1.000000000000001, -3.4014457916953234E-14, -1.513935010683921E-29, 0, -2.058742073352179E-28, 5.5996873804531585E-15, 0.9999999999999998, 0, -3.4014457916953234E-14, 1.000000000000001, -5.599687380453149E-15, 0, 0.020488169401430223, -4.59854764940851, 4.598547649408586, 1], "name" : "Plug v7"}, {"mesh" : 11, "name" : "Body2"}, {"children" : [23], "name" : "Body2"}, {"children" : [22, 24], "name" : "Poster Plug-Tug v1"}, {"children" : [25], "matrix" : [1, 0, 0, 0, 0, 1.2246467991473532E-16, -0.9999999999999999, 0, 0, 0.9999999999999999, 1.2246467991473532E-16, 0, 0, 0, 0, 1], "name" : "Poster Plug-Tug"}, {"children" : [26], "name" : "Default"}, {"children" : [27], "matrix" : [0.01, 0, 0, 0, 0, 0.01, 0, 0, 0, 0, 0.01, 0, 0, 0, 0, 1], "name" : "lux_root"}], "samplers" : [{"magFilter" : 9729, "minFilter" : 9987, "wrapS" : 10497, "wrapT" : 10497}], "scene" : 0, "scenes" : [{"nodes" : [0, 28]}], "textures" : [{"sampler" : 0, "source" : 0, "name" : ""}]}